HIERARCHY
ROOT root
{
	OFFSET 0.000000 0.000000 0.000000
	CHANNELS 6 Xposition Yposition Zposition Zrotation Yrotation Xrotation
	JOINT lhip
	{
		OFFSET 0.058581 -0.082280 -0.017664
		CHANNELS 3 Zrotation Yrotation Xrotation
		JOINT lknee
		{
			OFFSET 0.043451 -0.386469 0.008037
			CHANNELS 3 Zrotation Yrotation Xrotation
			JOINT lankle
			{
				OFFSET -0.014790 -0.426874 -0.037428
				CHANNELS 3 Zrotation Yrotation Xrotation
				JOINT ltoe
				{
					OFFSET 0.041054 -0.060286 0.122042
					CHANNELS 3 Zrotation Yrotation Xrotation
					End Site
					{
						OFFSET 0.000000 0.000000 0.000000
					}
				}
			}
		}
	}
	JOINT rhip
	{
		OFFSET -0.060310 -0.090513 -0.013543
		CHANNELS 3 Zrotation Yrotation Xrotation
		JOINT rknee
		{
			OFFSET -0.043257 -0.383688 -0.004843
			CHANNELS 3 Zrotation Yrotation Xrotation
			JOINT rankle
			{
				OFFSET 0.019056 -0.420046 -0.034562
				CHANNELS 3 Zrotation Yrotation Xrotation
				JOINT rtoe
				{
					OFFSET -0.034840 -0.062106 0.130323
					CHANNELS 3 Zrotation Yrotation Xrotation
					End Site
					{
						OFFSET 0.000000 0.000000 0.000000
					}
				}
			}
		}
	}
	JOINT lowerback
	{
		OFFSET 0.004439 0.124404 -0.038385
		CHANNELS 3 Zrotation Yrotation Xrotation
		JOINT upperback
		{
			OFFSET 0.004488 0.137956 0.026820
			CHANNELS 3 Zrotation Yrotation Xrotation
			JOINT chest
			{
				OFFSET -0.002265 0.056032 0.002855
				CHANNELS 3 Zrotation Yrotation Xrotation
				JOINT lowerneck
				{
					OFFSET -0.013390 0.211636 -0.033468
					CHANNELS 3 Zrotation Yrotation Xrotation
					JOINT upperneck
					{
						OFFSET 0.010113 0.088937 0.050410
						CHANNELS 3 Zrotation Yrotation Xrotation
						End Site
						{
							OFFSET 0.000000 0.000000 0.000000
						}
					}
				}
				JOINT lclavicle
				{
					OFFSET 0.071702 0.114000 -0.018898
					CHANNELS 3 Zrotation Yrotation Xrotation
					JOINT lshoulder
					{
						OFFSET 0.122921 0.045205 -0.019046
						CHANNELS 3 Zrotation Yrotation Xrotation
						JOINT lelbow
						{
							OFFSET 0.255332 -0.015649 -0.022946
							CHANNELS 3 Zrotation Yrotation Xrotation
							JOINT lwrist
							{
								OFFSET 0.265709 0.012698 -0.007375
								CHANNELS 3 Zrotation Yrotation Xrotation
								End Site
								{
									OFFSET 0.000000 0.000000 0.000000
								}
							}
						}
					}
				}
				JOINT rclavicle
				{
					OFFSET -0.082954 0.112472 -0.023707
					CHANNELS 3 Zrotation Yrotation Xrotation
					JOINT rshoulder
					{
						OFFSET -0.113228 0.046853 -0.008472
						CHANNELS 3 Zrotation Yrotation Xrotation
						JOINT relbow
						{
							OFFSET -0.260127 -0.014369 -0.031269
							CHANNELS 3 Zrotation Yrotation Xrotation
							JOINT rwrist
							{
								OFFSET -0.269108 0.006794 -0.006027
								CHANNELS 3 Zrotation Yrotation Xrotation
								End Site
								{
									OFFSET 0.000000 0.000000 0.000000
								}
							}
						}
					}
				}
			}
		}
	}
}
MOTION
Frames: 10
Frame Time: 0.033333
-0.010340 0.345932 0.961697 -9.859524 -0.528607 84.140982 0.659184 -3.724490 -25.021551 -3.146298 6.725603 17.569172 2.100281 10.683712 -0.239195 0.000000 -0.000000 0.000000 -0.490178 0.592175 18.667455 0.700904 9.028494 21.455516 2.251003 -2.540105 -14.582780 0.000000 -0.000000 0.000000 -1.539552 9.972991 7.586290 0.524633 -0.746423 2.009889 0.417961 3.567574 1.575725 1.586460 3.150536 -1.903427 -1.623582 -1.281771 -2.560148 -17.278312 7.468194 4.581306 -63.801478 17.960796 -0.731083 6.784270 0.054976 12.255961 -1.900385 0.595976 -0.216914 19.019656 11.395172 -1.284582 53.871317 28.050591 14.848261 -7.455806 46.898611 15.616650 0.433965 4.526964 -1.415357 
-0.005399 0.296569 0.964505 -8.654322 -2.588509 85.727604 -1.637794 -8.168371 -25.287024 -3.620987 7.195147 20.358491 4.385444 13.454534 -1.795573 0.000000 -0.000000 0.000000 -1.361689 3.290575 14.994175 -0.101542 6.339850 29.924748 7.511664 -2.401031 -6.133956 0.000000 -0.000000 0.000000 -5.113119 10.134773 5.401423 0.632946 -1.418346 2.598722 0.321291 3.688025 0.002191 2.718570 2.888171 -0.237628 -0.447056 -1.329160 -2.570670 -17.163954 5.392436 5.116982 -64.533196 16.792436 -4.708272 7.320966 1.695555 8.935397 -6.410884 0.332652 8.088384 20.156687 10.544536 -0.560489 55.692089 22.080072 13.719394 -8.951247 49.306453 13.963939 6.860785 3.155800 0.331804 
-0.000776 0.248958 0.971984 -7.169580 -3.914714 85.966283 -3.769945 -12.829887 -22.502722 -3.305429 9.062286 20.268262 7.036255 14.632162 -3.469428 0.000000 -0.000000 0.000000 -1.824207 5.813846 10.422586 0.184604 3.462065 39.753707 10.557043 -5.066611 10.269594 0.000000 -0.000000 0.000000 -7.328521 9.633163 5.201437 0.868475 -1.446936 2.219409 0.261443 3.173295 0.123559 2.777965 1.331328 -0.117249 0.654879 -1.078846 -2.119431 -17.649740 4.880702 4.573272 -64.863866 13.234435 -2.286341 7.416936 2.880221 6.717479 -8.207413 0.862725 10.372062 20.551404 8.312630 -1.224497 58.409600 17.624840 17.032265 -10.613557 47.508976 11.358107 9.069849 2.478441 0.840780 
0.002895 0.204221 0.979895 -5.491870 -4.253436 85.598173 -6.038744 -13.970075 -18.094007 -3.463135 8.355423 18.307458 9.372506 14.904920 -4.607068 0.000000 -0.000000 0.000000 -1.484213 7.627155 5.331398 1.275284 1.671224 48.922950 9.104564 -8.742788 23.351973 0.000000 -0.000000 0.000000 -8.524185 7.950545 6.217656 1.045584 -1.030063 1.182337 0.705301 2.831338 0.489894 2.335186 0.241994 0.122958 1.248291 0.838799 -1.635966 -17.528187 3.944995 4.547873 -66.517679 9.279689 0.229925 7.355107 1.609951 5.704956 -8.129358 0.726744 9.731312 20.178881 6.830733 -1.795326 60.408268 13.130618 18.917377 -10.148788 43.996842 10.684770 11.811246 1.131640 1.051722 
0.005092 0.161804 0.987738 -4.458542 -3.978415 84.819659 -7.832879 -11.638717 -13.045280 -4.011394 5.091325 15.928116 10.075536 15.027812 -5.865402 0.000000 -0.000000 0.000000 -1.203100 7.384192 -0.482031 3.029036 2.034076 57.857428 7.930125 -9.264927 22.334849 0.000000 -0.000000 0.000000 -8.842324 6.047529 7.793374 1.063634 -0.738456 0.172203 1.130709 2.488977 1.203803 2.380225 0.621448 0.088333 1.470146 1.486110 -1.087382 -17.223334 3.150955 3.591021 -67.887212 6.055125 2.661511 6.865718 -2.181016 6.009922 -7.094942 -0.358087 6.249840 20.008760 5.766248 -2.408129 61.472442 9.843114 18.839666 -7.208385 38.549534 13.120928 15.071353 -0.514788 1.888802 
0.007217 0.121463 0.995591 -3.639040 -3.277575 83.968821 -8.418096 -8.683548 -8.178276 -4.638710 1.717160 13.610757 9.547161 15.014369 -7.170372 0.000000 -0.000000 0.000000 -0.302325 6.032964 -6.412939 3.676654 3.029648 64.344897 6.308998 -7.646008 17.042979 0.000000 -0.000000 0.000000 -8.208634 4.188495 9.690828 0.890585 -0.828104 -1.069677 1.390958 1.851845 1.916968 1.909576 1.761439 0.369624 1.847433 2.515678 -0.805665 -17.288335 2.621536 2.300239 -68.223071 3.599087 4.735897 6.316639 -8.352851 7.508299 -4.938899 -1.243681 3.237166 19.833596 4.992589 -2.158015 61.905341 7.607484 17.763926 -4.661591 31.748613 16.373920 16.792685 -2.180378 4.508273 
0.009870 0.082686 1.002588 -2.264708 -2.275570 83.571364 -8.290964 -6.426227 -4.123624 -4.853155 -1.496837 11.773795 8.883346 14.508811 -8.095508 0.000000 -0.000000 0.000000 0.946599 4.844108 -12.408508 3.494278 3.327392 67.376199 5.174185 -6.848741 12.607667 0.000000 -0.000000 0.000000 -7.292621 2.473975 10.681168 1.032257 -1.072194 -1.246190 1.684499 1.208329 2.106626 1.276320 2.178197 0.999186 2.172783 3.149011 -0.929853 -17.729987 1.615307 1.292033 -67.977361 0.655432 6.973563 6.777075 -15.534362 8.690103 -2.370493 -2.253276 1.982484 19.663154 4.148962 -2.018138 61.634484 4.593271 16.185131 -4.393436 25.994051 18.128549 17.924583 -4.696307 7.873688 
0.012712 0.044544 1.008204 -0.176295 -1.381637 83.537256 -7.875424 -5.498884 -0.626569 -5.007737 -3.741214 10.095250 8.014029 13.843276 -9.152453 0.000000 -0.000000 0.000000 1.505479 4.632732 -17.870827 2.615654 1.949493 66.655258 4.190345 -7.932626 6.795041 0.000000 -0.000000 0.000000 -6.608720 0.851927 10.826137 1.484088 -1.377278 -0.675718 1.916370 0.326471 2.065429 0.744047 2.059978 1.957248 2.334634 2.799627 -1.285658 -18.009231 0.319794 0.821734 -67.418644 -3.154102 9.723172 8.316444 -22.674027 10.165719 -0.109279 -3.297833 1.829833 19.662237 3.168664 -1.704144 60.995662 1.522088 14.561712 -5.703297 20.629012 18.629423 18.837032 -6.865418 10.366515 
0.015409 0.005965 1.011958 2.247330 -0.286759 83.238344 -6.836625 -4.559162 2.957334 -5.332137 -6.012262 8.831971 7.067705 12.883786 -10.224843 0.000000 -0.000000 0.000000 1.822454 4.671222 -21.756876 2.021948 0.133241 62.247371 3.210356 -9.875580 0.202329 0.000000 -0.000000 0.000000 -5.650627 -0.846441 11.337876 1.898061 -1.714715 -0.237451 2.185031 -0.602032 1.976819 0.347897 2.419362 2.751203 2.306386 2.909003 -1.393114 -17.975686 -1.289405 0.423305 -66.486486 -7.082384 12.100316 10.161192 -29.342568 12.157805 1.798291 -3.931318 2.531050 19.664933 2.299817 -1.254495 60.052099 -1.618087 12.471531 -7.302634 16.141992 18.350899 18.552476 -8.515879 12.292402 
0.018282 -0.032479 1.013494 4.832193 0.722768 82.789305 -5.507678 -3.075059 6.491012 -5.673686 -8.838924 7.929327 5.855776 11.796887 -11.482507 0.000000 -0.000000 0.000000 1.738986 4.579964 -24.181628 1.482564 -1.616860 54.499054 3.193663 -11.136710 -4.725890 0.000000 -0.000000 0.000000 -4.791438 -2.509498 12.068431 2.296720 -2.227543 0.334046 2.562138 -1.432626 1.823647 -0.193391 2.782416 3.030652 2.646569 2.787052 -1.342183 -17.453557 -3.130534 -0.040957 -65.545585 -11.125565 13.816161 12.194440 -35.171471 13.472138 3.728544 -4.511868 3.658749 19.561149 1.469631 -0.925512 58.881373 -4.664632 9.901079 -8.803527 12.763498 17.749016 18.444878 -9.777116 13.721332 
